<?xml version="1.0" ?><svg xmlns="http://www.w3.org/2000/svg" xmlns:xlink="http://www.w3.org/1999/xlink" version="1.1" id="Layer_1" viewBox="0 0 32 32" style="enable-background:new 0 0 32 32;" xml:space="preserve"><style type="text/css">
	.st0{fill:none;stroke:#000000;stroke-linecap:round;stroke-linejoin:round;stroke-miterlimit:10;}
	.st1{fill:none;stroke:#000000;stroke-linecap:round;stroke-linejoin:round;}
	.st2{fill:none;stroke:#000000;stroke-linecap:round;stroke-linejoin:round;stroke-dasharray:2.94,2.94;}
	.st3{fill:none;stroke:#000000;stroke-linecap:round;stroke-linejoin:round;stroke-dasharray:3.4193,3.4193;}
</style><path class="st0" d="M22,19.3c0,0.8,0.3,1.5,0.8,2c0.1,0.1,0.2,0.2,0.3,0.2c0.5,0.4,1.1,0.6,1.8,0.6H30v4.5c0,2.4-1.9,4.3-4.3,4.3  H5.6c-2.4,0-4.3-1.9-4.3-4.3V11.9c0-0.1,0-0.3,0-0.4c0.2-1.7,1.4-3.2,3-3.7c0.4-0.1,0.9-0.2,1.3-0.2h20.1c0.4,0,0.9,0.1,1.3,0.2  c1.6,0.5,2.9,2,3,3.7c0,0.1,0,0.3,0,0.4v4.5h-5.2c-0.7,0-1.3,0.2-1.8,0.6C22.4,17.6,22,18.4,22,19.3z"/><polyline class="st1" points="25.5,22.2 27,22.2 27,23.7 "/><path class="st2" d="M26.6,26.6c-0.5,1.2-1.7,2-3.1,2H7.7c-1.9,0-3.4-1.5-3.4-3.4V13.5c0-1.9,1.5-3.4,3.4-3.4h15.9  c1.9,0,3.4,1.5,3.4,3.4"/><polyline class="st1" points="27,15 27,16.5 25.5,16.5 "/><path class="st3" d="M22.5,17.7c-0.3,0.5-0.5,1-0.5,1.6c0,0.8,0.3,1.5,0.8,2c0.1,0.1,0.2,0.2,0.3,0.2c0.2,0.2,0.5,0.3,0.7,0.4"/><path class="st0" d="M30.7,16.5v5.7h-5.9c-0.7,0-1.3-0.2-1.8-0.6c-0.1-0.1-0.2-0.2-0.3-0.2c-0.5-0.5-0.8-1.2-0.8-2  c0-0.9,0.4-1.7,1.1-2.3c0.5-0.4,1.1-0.6,1.8-0.6H30.7z"/><line class="st0" x1="25" y1="19.3" x2="27.7" y2="19.3"/><path class="st0" d="M13.4,18.1c0.2,0.7,0.8,1.2,1.5,1.2c0.2,0,0.8-0.2,0.8,0"/><path class="st0" d="M17.9,20.9v-0.1c0-0.9-0.7-1.5-1.5-1.5c0,0-0.7-0.2-0.7,0"/><path class="st0" d="M13.4,18.1c0-0.1,0-0.2,0-0.4c0-0.8,0.7-1.5,1.5-1.5H16h0.1h1.8"/><path class="st0" d="M13.4,22.3H16h0.4c0.8,0,1.5-0.6,1.5-1.4"/><line class="st0" x1="16" y1="14.5" x2="16" y2="16.2"/><line class="st0" x1="16" y1="22.4" x2="16" y2="24.1"/><path class="st0" d="M8.1,4.2L7.9,7.6H5.6c-0.5,0-0.9,0.1-1.3,0.2c-1.6,0.5-2.8,2-3,3.7v-4c0-1.5,1.1-2.9,2.5-3.2  C4,4.2,4.3,4.2,4.6,4.2H8.1z"/><path class="st0" d="M30,7.5v4c-0.1-1.7-1.4-3.2-3-3.7c-0.4-0.1-0.9-0.2-1.3-0.2h-2.1l0.2-3.3h3.3C28.8,4.5,30,5.8,30,7.5z"/><path class="st0" d="M23.9,2.8l-0.3,4.8H7.9l0.4-5.9C8.4,1.3,8.7,1,9.2,1l14,1C23.6,2.1,23.9,2.4,23.9,2.8z"/></svg>